<svg t="1615427422752" class="icon" viewBox="0 0 1024 1024" version="1.1" xmlns="http://www.w3.org/2000/svg" p-id="18270" width="72" height="72"><path d="M321.163636 684.218182c4.654545 0 13.963636 0 18.618182-4.654546l232.727273-130.327272c13.963636-4.654545 18.618182-18.618182 18.618182-32.581819 0-13.963636-9.309091-27.927273-18.618182-32.581818l-232.727273-125.672727c-9.309091-4.654545-23.272727-4.654545-37.236363 0s-18.618182 18.618182-18.618182 32.581818v256c0 13.963636 9.309091 23.272727 18.618182 32.581818 4.654545 4.654545 13.963636 4.654545 18.618181 4.654546z m37.236364-232.727273l116.363636 65.163636-116.363636 65.163637v-130.327273z" p-id="18271"></path><path d="M716.8 83.781818l-600.436364 46.545455c-37.236364 4.654545-65.163636 37.236364-60.509091 69.818182v633.018181c0 37.236364 32.581818 69.818182 65.163637 69.818182l595.781818 37.236364c23.272727 0 41.890909-9.309091 55.854545-18.618182 9.309091-9.309091 18.618182-32.581818 18.618182-51.2V153.6c0-23.272727-4.654545-37.236364-18.618182-51.2-13.963636-13.963636-32.581818-18.618182-55.854545-18.618182z m4.654545 786.618182l-595.781818-41.890909V200.145455l595.781818-41.89091v712.145455zM870.4 139.636364h-60.509091v74.472727h60.509091c9.309091 0 13.963636 4.654545 18.618182 9.309091 4.654545 4.654545 9.309091 9.309091 9.309091 18.618182V791.272727c0 9.309091-4.654545 13.963636-9.309091 18.618182-4.654545 4.654545-9.309091 9.309091-18.618182 9.309091h-60.509091v74.472727h60.509091c27.927273 0 51.2-9.309091 69.818182-27.927272 23.272727-13.963636 32.581818-46.545455 32.581818-69.818182V242.036364c0-55.854545-46.545455-102.4-102.4-102.4z" p-id="18272"></path></svg>