<?xml version="1.0" standalone="no"?><!DOCTYPE svg PUBLIC "-//W3C//DTD SVG 1.1//EN" "http://www.w3.org/Graphics/SVG/1.1/DTD/svg11.dtd"><svg t="1615372418300" class="icon" viewBox="0 0 1024 1024" version="1.1" xmlns="http://www.w3.org/2000/svg" p-id="7361" xmlns:xlink="http://www.w3.org/1999/xlink" width="72" height="72"><defs><style type="text/css"></style></defs><path d="M681.30074232 342.49051199c34.419875-37.550966 75.079805-93.855288 75.079804-153.2907 0-34.419875-9.38221-62.566504-31.27772-84.473079C684.43183332 64.05573999 612.47205632 64.05573999 531.14113332 64.05573999h-59.424349c-75.079805 0-137.646308-3.131091-178.317302 37.539902-21.939766 21.89551-31.310912 50.064267-31.310911 87.60417 0 84.462014 75.090868 159.541819 109.532871 187.699511 12.513301 12.513301 34.408811 9.38221 43.802084-3.131091 12.502237-12.513301 9.38221-34.408811-3.131091-43.791021-53.184294-46.933176-87.593105-100.106406-87.593105-140.777399 0-31.288784 9.38221-40.670993 12.513301-43.802085 21.89551-18.808675 75.079805-18.808675 134.515217-18.808675h65.697595c65.697595 0 128.264099 0 150.159609 21.89551 0 3.131091 9.393274 12.513301 9.393273 40.670994 0 37.539902-34.419875 90.724196-90.724196 137.646308-9.38221 6.262182-12.513301 18.808675-9.38221 28.157693a48.681276 48.681276 0 0 0 18.808675 25.026601c115.750798 43.791021 237.752714 162.639718 237.752714 325.34582 0 153.2907-93.844224 209.606086-344.08811 209.606085s-344.088111-56.315385-344.088111-209.606085c0-93.844224 43.802085-187.699511 122.01298-256.528198 12.36947-12.469045 15.489497-31.233464 2.998324-43.779956s-31.288784-15.644392-43.802085-3.131091C155.74211032 483.23471899 102.55781632 592.72333499 102.55781632 705.34304199c0 272.172589 275.30368 272.172589 406.687806 272.172589s406.69887 0 406.698871-272.172589c3.120027-150.159609-93.855288-290.981264-234.632687-362.896786z m0 0" p-id="7362"></path><path d="M637.50972132 495.74801999c12.502237-12.513301 12.502237-31.288784 0-43.802084s-31.288784-12.513301-43.802085 0l-78.210895 75.112996-78.210896-75.079805c-12.513301-12.513301-31.288784-12.513301-43.802085 0s-12.513301 31.288784 0 43.802085l87.60417 84.462014v18.808675h-62.577568c-18.808675 0-31.27772 12.513301-31.27772 31.27772s12.513301 31.288784 31.27772 31.288784h62.577568v31.27772h-62.577568c-18.808675 0-31.27772 12.513301-31.27772 31.288783s12.513301 31.27772 31.27772 31.27772h62.577568v65.675467c0 18.808675 12.513301 31.27772 31.277719 31.27772s31.266656-12.513301 31.266656-31.27772v-65.708658h62.566504c18.808675 0 31.288784-12.502237 31.288784-31.27772s-12.524365-31.288784-31.288784-31.288784h-62.566504v-31.27772h62.566504c18.808675 0 31.288784-12.513301 31.288784-31.288784s-12.524365-31.27772-31.288784-31.27772h-62.566504v-12.546492z m0 0" p-id="7363"></path></svg>