<?xml version="1.0" standalone="no"?><!DOCTYPE svg PUBLIC "-//W3C//DTD SVG 1.1//EN" "http://www.w3.org/Graphics/SVG/1.1/DTD/svg11.dtd"><svg t="1615371221326" class="icon" viewBox="0 0 1024 1024" version="1.1" xmlns="http://www.w3.org/2000/svg" p-id="1644" xmlns:xlink="http://www.w3.org/1999/xlink" width="72" height="72"><defs><style type="text/css"></style></defs><path d="M816 1024H209.488372c-82.604651 0-149.581395-66.976744-149.581395-149.581395V151.069767c0-82.604651 66.976744-149.581395 149.581395-149.581395h606.511628c82.604651 0 149.581395 66.976744 149.581395 149.581395v722.604652c0 82.604651-66.976744 150.325581-149.581395 150.325581zM209.488372 76.651163c-41.674419 0-75.162791 33.488372-75.162791 75.16279v722.604652c0 41.674419 33.488372 75.162791 75.162791 75.16279h606.511628c41.674419 0 75.162791-33.488372 75.162791-75.16279V151.069767c0-41.674419-33.488372-75.162791-75.162791-75.16279H209.488372z" fill="" p-id="1645"></path><path d="M843.534884 1024H181.953488c-67.72093 0-122.046512-55.069767-122.046511-122.046512v-49.116279c0-75.162791 61.767442-136.930233 136.930232-136.930232H965.581395v186.046511c0 66.976744-55.069767 122.046512-122.046511 122.046512z m-646.697675-233.674419c-34.232558 0-62.511628 28.27907-62.511628 62.511628v49.116279c0 26.046512 21.581395 47.627907 47.627907 47.627907h660.83721c26.046512 0 47.627907-21.581395 47.627907-47.627907v-111.627907H196.837209zM253.395349 474.790698c-8.186047 0-17.116279-2.232558-25.302326-5.953489-18.604651-9.674419-30.511628-28.27907-30.511628-49.860465V0h308.093024v415.255814c0 22.325581-11.906977 41.674419-32 51.348837-19.348837 9.674419-42.418605 8.186047-60.27907-5.209302l-61.023256-44.651163c-0.744186-0.744186-1.488372-0.744186-2.232558 0l-64.744186 47.627907c-8.186047 6.697674-20.093023 10.418605-32 10.418605zM272.744186 74.418605v307.348837l34.232558-25.302326c26.790698-20.093023 63.255814-20.093023 90.046512 0l34.232558 25.302326V74.418605H272.744186z" fill="" p-id="1646"></path></svg>